<svg width="818" height="249" viewBox="0 0 818 249" fill="none" xmlns="http://www.w3.org/2000/svg">
<path d="M15.1266 4.0775L0.639262 35.6087C0.218067 36.5254 0 37.5223 0 38.5312V242C0 245.866 3.13399 249 6.99998 249H811C814.866 249 818 245.866 818 242V131.675C818 127.938 815.065 124.86 811.333 124.683L715.3 120.11C713.806 120.038 712.374 119.491 711.214 118.547L612.93 38.5705C611.682 37.5546 610.121 37 608.512 37H503.03C501.097 37 499.249 37.7998 497.926 39.2098L441.074 99.7902C439.751 101.2 437.903 102 435.97 102H335H289.794C286.904 102 284.312 100.225 283.267 97.5307L267.733 57.4693C266.688 54.7753 264.096 53 261.206 53H185.616C183.929 53 182.299 52.3907 181.025 51.2841L123.975 1.7159C122.701 0.609345 121.071 0 119.384 0H21.4873C18.7526 0 16.2683 1.59254 15.1266 4.0775Z" fill="#C4C4C4"/>
</svg>
